<?xml version="1.0" encoding="utf-8"?>
<!-- Generator: Adobe Illustrator 23.0.1, SVG Export Plug-In . SVG Version: 6.00 Build 0)  -->
<svg version="1.1" id="Layer_1" xmlns="http://www.w3.org/2000/svg" xmlns:xlink="http://www.w3.org/1999/xlink" x="0px" y="0px"
	 viewBox="0 0 130 50" style="enable-background:new 0 0 130 50;" xml:space="preserve">
<style type="text/css">
	.st0{fill:#31c5f4;}
</style>
<g>
	<path class="st0" d="M45.98,24.92V14.41c0-0.44,0.28-0.85,0.85-1.23c0.57-0.38,1.23-0.57,1.99-0.57c0.73,0,1.38,0.19,1.95,0.57
		c0.57,0.38,0.85,0.79,0.85,1.22v10.48c0,1.02,0.38,1.93,1.14,2.73c0.76,0.8,1.66,1.2,2.71,1.2c1.05,0,1.95-0.4,2.69-1.2
		c0.74-0.8,1.12-1.71,1.12-2.73V14.36c0-0.47,0.28-0.87,0.85-1.22c0.57-0.35,1.23-0.52,1.99-0.52c0.82,0,1.49,0.18,2.01,0.53
		c0.53,0.35,0.79,0.76,0.79,1.23v10.55c0,2.36-0.93,4.44-2.8,6.22c-1.87,1.78-4.09,2.67-6.66,2.67c-2.57,0-4.8-0.89-6.68-2.67
		C46.92,29.35,45.98,27.28,45.98,24.92z"/>
	<path class="st0" d="M69.54,31.62V2.23c0-0.53,0.26-0.95,0.77-1.27c0.51-0.32,1.19-0.48,2.04-0.48c0.79,0,1.46,0.16,2.01,0.48
		c0.55,0.32,0.83,0.74,0.83,1.27v29.38c0,0.44-0.28,0.85-0.85,1.23c-0.57,0.38-1.23,0.57-1.99,0.57c-0.79,0-1.45-0.18-1.99-0.55
		C69.81,32.5,69.54,32.08,69.54,31.62z"/>
	<path class="st0" d="M78.65,30.04c0-0.53,0.19-1.07,0.58-1.64c0.38-0.57,0.83-0.85,1.33-0.85c0.32,0,0.73,0.15,1.22,0.44
		c0.49,0.29,1.13,0.59,1.93,0.9c0.8,0.31,1.74,0.46,2.84,0.46c2.16,0,3.24-0.61,3.24-1.83c0-0.68-0.36-1.22-1.07-1.62
		c-0.72-0.4-1.58-0.72-2.58-0.98c-1.01-0.26-2.02-0.56-3.04-0.92c-1.02-0.36-1.89-0.95-2.61-1.79c-0.72-0.84-1.07-1.91-1.07-3.22
		c0-1.81,0.63-3.37,1.88-4.68c1.25-1.31,3.24-1.96,5.96-1.96c1.81,0,3.42,0.28,4.84,0.83c1.42,0.55,2.12,1.23,2.12,2.01
		c0,0.5-0.2,1.07-0.59,1.73s-0.88,0.99-1.47,0.99c-0.23,0-0.87-0.18-1.9-0.55c-1.04-0.36-2.01-0.55-2.91-0.55
		c-0.99,0-1.75,0.2-2.28,0.6c-0.53,0.4-0.79,0.84-0.79,1.32c0,0.48,0.26,0.88,0.79,1.19c0.53,0.31,1.17,0.55,1.95,0.72
		c0.77,0.17,1.6,0.4,2.49,0.7c0.89,0.3,1.71,0.65,2.47,1.04c0.76,0.4,1.39,1.02,1.91,1.85c0.51,0.84,0.77,1.85,0.77,3.05
		c0,2.02-0.71,3.61-2.12,4.77c-1.42,1.16-3.39,1.74-5.93,1.74c-2.19,0-4.06-0.38-5.61-1.14C79.42,31.91,78.65,31.03,78.65,30.04z"/>
	<path class="st0" d="M98.31,31.62V14.36c0-0.53,0.25-0.95,0.76-1.27c0.51-0.32,1.15-0.48,1.94-0.48c0.79,0,1.44,0.16,1.96,0.48
		c0.52,0.32,0.78,0.74,0.78,1.27v17.25c0,0.44-0.27,0.85-0.82,1.23c-0.55,0.38-1.19,0.57-1.92,0.57c-0.76,0-1.4-0.18-1.92-0.55
		C98.57,32.5,98.31,32.08,98.31,31.62z"/>
	<path class="st0" d="M108.16,31.65V9.92c0-2.7,0.99-4.99,2.96-6.85c1.97-1.87,4.59-2.8,7.86-2.8c1.93,0,3.66,0.3,5.19,0.9
		c1.53,0.6,2.3,1.34,2.3,2.21c0,0.55-0.19,1.24-0.57,2.06c-0.38,0.82-0.86,1.23-1.45,1.23c-0.18,0-0.78-0.23-1.82-0.7
		c-1.04-0.47-2.24-0.7-3.61-0.7c-1.64,0-2.91,0.39-3.83,1.18c-0.92,0.79-1.38,1.93-1.38,3.42v2.76h4.47c0.47,0,0.83,0.22,1.09,0.67
		c0.26,0.44,0.39,0.97,0.39,1.57c0,0.6-0.13,1.12-0.39,1.57c-0.26,0.44-0.63,0.66-1.09,0.66h-4.47V31.7c0,0.51-0.28,0.93-0.85,1.24
		c-0.57,0.31-1.25,0.47-2.04,0.47c-0.79,0-1.45-0.16-1.97-0.48C108.43,32.6,108.16,32.18,108.16,31.65z M122.92,31.62V14.36
		c0-0.53,0.26-0.95,0.77-1.27c0.51-0.32,1.17-0.48,1.99-0.48c0.82,0,1.5,0.16,2.06,0.48c0.55,0.32,0.83,0.74,0.83,1.27v17.25
		c0,0.44-0.29,0.85-0.88,1.23c-0.58,0.38-1.26,0.57-2.01,0.57c-0.79,0-1.45-0.18-1.97-0.55C123.18,32.5,122.92,32.08,122.92,31.62z"
		/>
</g>
<path class="st0" d="M32.02,11.38c-1.64,0-3.2,0.37-4.6,1.01l-0.55-1.95c0.85-0.45,1.43-1.33,1.43-2.36c0-1.48-1.19-2.68-2.65-2.68
	s-2.65,1.2-2.65,2.68c0,1.42,1.1,2.58,2.49,2.66l0.67,2.33c-1.15,0.72-2.16,1.64-2.99,2.72L15.1,9.22c0.56-0.88,0.89-1.92,0.89-3.04
	c0-3.09-2.48-5.6-5.55-5.6c-3.06,0-5.55,2.51-5.55,5.6c0,3.09,2.48,5.6,5.55,5.6c1.45,0,2.76-0.57,3.75-1.48l8.19,6.68
	c-0.84,1.45-1.37,3.09-1.5,4.86H16c-0.69-3.26-3.55-5.7-6.98-5.7c-3.94,0-7.14,3.23-7.14,7.21s3.2,7.21,7.14,7.21
	c3.43,0,6.3-2.44,6.98-5.7h4.75v17.75c-1.07,0.76-1.77,2.02-1.77,3.45c0,2.33,1.87,4.22,4.19,4.22c2.31,0,4.19-1.89,4.19-4.22
	c0-1.42-0.7-2.68-1.77-3.45V31.86c1.82,1.3,4.04,2.07,6.44,2.07c6.17,0,11.18-5.05,11.18-11.27C43.2,16.43,38.19,11.38,32.02,11.38z
	 M32.02,28.13c-3,0-5.43-2.45-5.43-5.48c0-3.03,2.43-5.48,5.43-5.48s5.43,2.45,5.43,5.48C37.45,25.68,35.02,28.13,32.02,28.13z"/>
</svg>
